<?xml version="1.0" encoding="UTF-8" standalone="no"?>
<!DOCTYPE svg PUBLIC "-//W3C//DTD SVG 1.1//EN" "http://www.w3.org/Graphics/SVG/1.1/DTD/svg11.dtd">
<svg width="100%" height="100%" viewBox="0 0 388 388" version="1.1" xmlns="http://www.w3.org/2000/svg" xmlns:xlink="http://www.w3.org/1999/xlink" xml:space="preserve" xmlns:serif="http://www.serif.com/" style="fill-rule:evenodd;clip-rule:evenodd;stroke-linecap:round;stroke-linejoin:round;stroke-miterlimit:1.5;">
    <g transform="matrix(1,0,0,1,-418.283782,-985.450892)">
        <g transform="matrix(2.999292,0,0,2.999292,-830.945184,387.707813)">
            <circle cx="481.05" cy="263.837" r="64.542" style="fill:url(#_Radial1);"/>
        </g>
        <g transform="matrix(1.156617,0,0,1.156617,84.884089,811.12781)">
            <circle cx="481.05" cy="263.837" r="64.542" style="fill:rgb(252,209,176);stroke:rgb(147,145,139);stroke-width:7.2px;"/>
        </g>
        <g>
            <g transform="matrix(1.156617,0,0,1.156617,-10.21889,844.53314)">
                <circle cx="481.05" cy="263.837" r="64.542" style="fill:rgb(231,111,81);stroke:rgb(147,145,139);stroke-width:7.2px;"/>
            </g>
            <g transform="matrix(0.521703,0,0,0.521703,217.819748,523.935516)">
                <g transform="matrix(208.333333,0,0,208.333333,698.151912,1274.014132)">
                </g>
                <text x="560.619px" y="1274.014px" style="font-family:'Arial-Black', 'Arial', sans-serif;font-weight:900;font-size:208.333px;fill:white;fill-opacity:0.7;">+</text>
            </g>
        </g>
        <g transform="matrix(1.196721,0,0,1.196721,7.647251,922.531904)">
            <circle cx="481.05" cy="263.837" r="64.542" style="fill:rgb(252,209,176);stroke:rgb(147,145,139);stroke-width:6.96px;"/>
        </g>
        <g transform="matrix(1.196721,0,0,1.196721,104.813418,877.742387)">
            <circle cx="481.05" cy="263.837" r="64.542" style="fill:rgb(231,111,81);stroke:rgb(147,145,139);stroke-width:6.96px;"/>
        </g>
        <g transform="matrix(0.73178,0,0,0.915974,18.606179,159.934683)">
            <g transform="matrix(0.863629,0,0,0.689961,74.482177,346.078931)">
                <g transform="matrix(208.333333,0,0,208.333333,668.072155,1277.458676)">
                </g>
                <text x="548.443px" y="1277.459px" style="font-family:'CambriaMath', 'Cambria Math', serif;font-size:208.333px;fill:rgb(147,145,139);">α</text>
                <path d="M631.135,1181.262L632.219,1177.482C633.436,1173.242 637.314,1170.32 641.725,1170.32L658.408,1170.32C663.87,1170.32 668.298,1174.748 668.298,1180.209L668.298,1185.194C668.298,1187.104 667.745,1188.973 666.705,1190.576C662.21,1197.506 656.341,1210.135 648.972,1228.404C650.259,1240.193 651.711,1249.165 653.398,1255.31C653.601,1256.047 653.934,1256.883 654.243,1257.588C655,1257.14 655.901,1256.562 656.607,1255.982C658.771,1254.204 661.588,1253.428 664.357,1253.845C667.127,1254.262 669.59,1255.834 671.134,1258.171L675.101,1264.172C677.837,1268.311 677.083,1273.836 673.339,1277.09C663.967,1285.235 654.454,1288.976 645.082,1288.976C635.675,1288.976 627.541,1284.159 622.253,1273.409C613.031,1284.023 602.444,1288.976 591.066,1288.976C577.449,1288.976 566.853,1283.346 559.268,1272.106C552.754,1262.452 549.133,1248.764 549.133,1230.869C549.133,1212.217 554.148,1197.428 563.593,1186.317C573.719,1174.403 586.043,1168.591 600.425,1168.591C611.72,1168.591 620.463,1171.629 626.873,1177.008C628.329,1178.23 629.752,1179.646 631.135,1181.262ZM666.851,1269.626L662.884,1263.624C659.086,1266.744 655.797,1268.303 653.017,1268.303C648.812,1268.303 645.76,1264.845 643.862,1257.927C641.963,1251.01 640.301,1240.702 638.877,1227.003C647.015,1206.658 653.525,1192.722 658.408,1185.194L658.408,1180.209L641.725,1180.209L634.605,1205.03L633.079,1205.03C629.552,1195.468 625.364,1188.653 620.516,1184.584C615.667,1180.515 608.97,1178.48 600.425,1178.48C588.964,1178.48 579.198,1183.227 571.128,1192.722C563.058,1202.216 559.023,1214.932 559.023,1230.869C559.023,1246.331 561.837,1258.233 567.466,1266.574C573.095,1274.916 580.961,1279.086 591.066,1279.086C604.562,1279.086 615.955,1269.592 625.246,1250.603L626.365,1250.603C628.467,1269.592 634.706,1279.086 645.082,1279.086C652.339,1279.086 659.595,1275.933 666.851,1269.626ZM624.737,1228.325C618.973,1254.164 609.478,1267.083 596.254,1267.083C583.844,1267.083 577.638,1254.57 577.638,1229.546C577.638,1216.525 579.775,1206.098 584.047,1198.266C588.32,1190.433 594.05,1186.516 601.239,1186.516C607.953,1186.516 613.09,1189.67 616.65,1195.977C620.21,1202.284 622.906,1213.067 624.737,1228.325ZM614.71,1227.814L614.71,1227.812C613.119,1215.208 611.053,1206.178 608.038,1200.838C606.44,1198.008 604.252,1196.406 601.239,1196.406C597.522,1196.406 594.938,1198.951 592.729,1203.001C589.11,1209.637 587.528,1218.515 587.528,1229.546C587.528,1238.257 588.279,1245.239 590.006,1250.465C591.33,1254.467 592.946,1257.193 596.254,1257.193C599.86,1257.193 602.735,1255.06 605.324,1251.537C609.251,1246.194 612.267,1238.243 614.71,1227.814Z" style="fill:white;"/>
            </g>
        </g>
        <g transform="matrix(0.540776,0,0,0.540776,340.139913,544.84831)">
            <g transform="matrix(208.333333,0,0,208.333333,698.151912,1274.014132)">
            </g>
            <text x="560.619px" y="1274.014px" style="font-family:'Arial-Black', 'Arial', sans-serif;font-weight:900;font-size:208.333px;fill:white;fill-opacity:0.7;">+</text>
        </g>
    </g>
    <defs>
        <radialGradient id="_Radial1" cx="0" cy="0" r="1" gradientUnits="userSpaceOnUse" gradientTransform="matrix(64.542318,0,0,64.542318,481.050242,263.837031)"><stop offset="0" style="stop-color:rgb(231,111,81);stop-opacity:1"/><stop offset="1" style="stop-color:rgb(175,54,24);stop-opacity:0"/></radialGradient>
    </defs>
</svg>
