<?xml version="1.0" encoding="UTF-8" standalone="no"?>
<!DOCTYPE svg PUBLIC "-//W3C//DTD SVG 1.1//EN" "http://www.w3.org/Graphics/SVG/1.1/DTD/svg11.dtd">
<svg width="100%" height="100%" viewBox="0 0 261 261" version="1.1" xmlns="http://www.w3.org/2000/svg" xmlns:xlink="http://www.w3.org/1999/xlink" xml:space="preserve" xmlns:serif="http://www.serif.com/" style="fill-rule:evenodd;clip-rule:evenodd;stroke-linejoin:round;stroke-miterlimit:2;">
    <g transform="matrix(1,0,0,1,-203.917091,-1502.888003)">
        <g transform="matrix(2.020597,0,0,2.020597,-637.677552,1100.193712)">
            <circle cx="481.05" cy="263.837" r="64.542" style="fill:url(#_Radial1);"/>
        </g>
        <g transform="matrix(0.196447,0,0,0.196447,239.830436,1584.366355)">
            <circle cx="481.05" cy="263.837" r="64.542" style="fill:rgb(12,110,158);"/>
        </g>
        <g transform="matrix(0.57273,0,0,0.57273,-131.155915,993.996737)">
            <text x="605.049px" y="1277.459px" style="font-family:'CambriaMath', 'Cambria Math', serif;font-size:208.333px;fill:rgb(147,145,139);">e</text>
            <path d="M645.557,1238.221C645.907,1241.058 646.448,1243.626 647.203,1245.919C648.247,1249.09 649.864,1251.636 652.247,1253.428C654.651,1255.236 657.855,1255.865 661.71,1255.865C665.558,1255.865 669.033,1255.214 672.107,1253.782C675.455,1252.224 678.724,1249.597 682.046,1246.071C684.11,1243.879 686.989,1242.638 689.999,1242.641C693.01,1242.643 695.886,1243.89 697.947,1246.086L704.152,1252.698C708.118,1256.924 708.088,1263.512 704.085,1267.703C699.183,1272.836 694.659,1276.832 690.561,1279.743C686.068,1282.934 681.138,1285.438 675.764,1287.244C670.37,1289.056 664.435,1289.999 657.946,1289.999C640.221,1289.999 627.03,1284.218 617.995,1273.592C609.488,1263.585 604.715,1248.971 604.715,1229.444C604.715,1217.582 606.932,1207.13 611.191,1198.054C615.763,1188.312 622.331,1180.837 630.791,1175.538C639.188,1170.28 648.835,1167.567 659.777,1167.567C668.391,1167.567 675.702,1169.057 681.757,1171.786C688.334,1174.751 693.547,1178.86 697.483,1184.001C701.124,1188.756 704.034,1194.715 706.047,1201.954C707.832,1208.372 708.911,1216.737 709.139,1227.067C709.204,1230.003 708.083,1232.84 706.03,1234.939C703.977,1237.038 701.165,1238.221 698.229,1238.221L645.557,1238.221ZM696.194,1260.165L689.989,1253.553C685.581,1258.233 681.156,1261.606 676.714,1263.675C672.272,1265.743 667.271,1266.778 661.71,1266.778C655.131,1266.778 649.791,1265.235 645.688,1262.149C641.585,1259.063 638.635,1254.791 636.838,1249.332C635.041,1243.872 634.142,1237.142 634.142,1229.139L634.142,1227.308L698.229,1227.308C698.025,1218.085 697.127,1210.608 695.533,1204.878C693.939,1199.147 691.702,1194.4 688.819,1190.636C685.937,1186.872 682.088,1183.905 677.273,1181.735C672.458,1179.565 666.626,1178.48 659.777,1178.48C651.028,1178.48 643.297,1180.582 636.583,1184.787C629.87,1188.992 624.698,1194.959 621.07,1202.691C617.442,1210.422 615.628,1219.34 615.628,1229.444C615.628,1245.788 619.188,1258.148 626.309,1266.523C633.43,1274.899 643.975,1279.086 657.946,1279.086C663.168,1279.086 667.949,1278.357 672.289,1276.899C676.629,1275.441 680.613,1273.424 684.242,1270.847C687.87,1268.269 691.854,1264.709 696.194,1260.165ZM679.105,1218.865L634.651,1218.865C635.397,1208.489 637.855,1200.504 642.026,1194.909C646.196,1189.314 651.774,1186.516 658.759,1186.516C663.371,1186.516 667.101,1187.754 669.949,1190.229C672.798,1192.705 674.934,1196.265 676.358,1200.91C677.782,1205.556 678.698,1211.541 679.105,1218.865ZM666.881,1207.952C666.604,1206.57 666.286,1205.288 665.925,1204.109C665.187,1201.702 664.267,1199.749 662.791,1198.466C661.785,1197.592 660.388,1197.429 658.759,1197.429C655.427,1197.429 652.765,1198.761 650.775,1201.431C649.415,1203.255 648.358,1205.435 647.551,1207.952L666.881,1207.952Z" style="fill:white;"/>
            <g transform="matrix(121.458333,0,0,121.458333,753.875047,1208.083676)">
            </g>
            <text x="713.547px" y="1208.084px" style="font-family:'CambriaMath', 'Cambria Math', serif;font-size:121.458px;fill:rgb(147,145,139);">-</text>
            <path d="M747.47,1192.368L719.952,1192.368C713.925,1192.368 709.039,1187.482 709.039,1181.455L709.039,1172.263C709.039,1166.236 713.925,1161.35 719.952,1161.35L747.47,1161.35C753.497,1161.35 758.383,1166.236 758.383,1172.263L758.383,1181.455C758.383,1187.482 753.497,1192.368 747.47,1192.368ZM747.47,1181.455L747.47,1172.263L719.952,1172.263L719.952,1181.455L747.47,1181.455Z" style="fill:white;"/>
        </g>
    </g>
    <defs>
        <radialGradient id="_Radial1" cx="0" cy="0" r="1" gradientUnits="userSpaceOnUse" gradientTransform="matrix(64.542318,0,0,64.542318,481.050242,263.837031)"><stop offset="0" style="stop-color:rgb(12,110,158);stop-opacity:1"/><stop offset="0.43" style="stop-color:rgb(88,155,188);stop-opacity:0.69"/><stop offset="1" style="stop-color:white;stop-opacity:0"/></radialGradient>
    </defs>
</svg>
