<?xml version="1.0" encoding="UTF-8" standalone="no"?>
<!DOCTYPE svg PUBLIC "-//W3C//DTD SVG 1.1//EN" "http://www.w3.org/Graphics/SVG/1.1/DTD/svg11.dtd">
<svg width="100%" height="100%" viewBox="0 0 326 326" version="1.1" xmlns="http://www.w3.org/2000/svg" xmlns:xlink="http://www.w3.org/1999/xlink" xml:space="preserve" xmlns:serif="http://www.serif.com/" style="fill-rule:evenodd;clip-rule:evenodd;stroke-linejoin:round;stroke-miterlimit:2;">
    <g transform="matrix(1,0,0,1,-594.792837,-1452.091919)">
        <g transform="matrix(2.52459,0,0,2.52459,-456.71895,948.954455)">
            <circle cx="481.05" cy="263.837" r="64.542" style="fill:url(#_Radial1);"/>
        </g>
        <g transform="matrix(1.196721,0,0,1.196721,182.052594,1299.295383)">
            <circle cx="481.05" cy="263.837" r="64.542" style="fill:rgb(231,111,81);"/>
        </g>
        <g transform="matrix(0.540776,0,0,0.540776,417.379089,966.401306)">
            <g transform="matrix(208.333333,0,0,208.333333,698.151912,1274.014132)">
            </g>
            <text x="560.619px" y="1274.014px" style="font-family:'Arial-Black', 'Arial', sans-serif;font-weight:900;font-size:208.333px;fill:white;fill-opacity:0.7;">+</text>
        </g>
        <g transform="matrix(0.44894,0,0,0.44894,349.594184,1134.026202)">
            <text x="615.9px" y="1261.811px" style="font-family:'CambriaMath', 'Cambria Math', serif;font-size:208.333px;fill:rgb(147,145,139);">p</text>
            <path d="M663.972,1154.546C664.322,1154.363 664.674,1154.185 665.026,1154.011C668.709,1152.193 672.259,1150.932 675.655,1150.167C679.022,1149.408 682.601,1149.013 686.395,1149.013C702.547,1149.013 714.836,1155.299 723.499,1167.388C730.848,1177.644 735.107,1192.507 735.107,1212.271C735.107,1225.715 732.895,1236.988 728.821,1246.154C724.164,1256.632 717.282,1264.411 708.387,1269.673C699.915,1274.686 689.866,1277.361 678.156,1277.361C674.289,1277.361 670.656,1277.141 667.256,1276.717L667.256,1280.224C667.256,1282.89 667.3,1285.048 667.426,1286.696C667.809,1286.768 668.23,1286.845 668.686,1286.94C675.142,1288.285 679.768,1293.974 679.768,1300.569L679.768,1305.553C679.768,1313.242 673.536,1319.475 665.847,1319.475L624.343,1319.475C616.654,1319.475 610.421,1313.242 610.421,1305.553L610.421,1300.569C610.421,1294.315 614.591,1288.829 620.617,1287.155C621.002,1287.048 621.369,1286.943 621.719,1286.838C621.858,1285.049 621.916,1282.844 621.916,1280.224L621.916,1192.943C621.916,1188.793 621.873,1185.756 621.767,1183.834L620.595,1183.605C614.088,1182.303 609.404,1176.59 609.404,1169.954L609.404,1164.562C609.404,1157.081 615.317,1150.937 622.793,1150.651L646.698,1149.735C646.876,1149.728 647.053,1149.725 647.231,1149.725L653.436,1149.725C657.321,1149.725 661.029,1151.348 663.664,1154.202C663.769,1154.315 663.871,1154.43 663.972,1154.546ZM653.335,1258.76C656.725,1260.184 660.455,1261.32 664.524,1262.168C668.593,1263.015 673.137,1263.439 678.156,1263.439C687.107,1263.439 694.822,1261.523 701.298,1257.692C707.775,1253.86 712.708,1248.129 716.099,1240.5C719.49,1232.871 721.185,1223.461 721.185,1212.271C721.185,1196.131 718.184,1183.873 712.183,1175.498C706.181,1167.122 697.585,1162.935 686.395,1162.935C683.683,1162.935 681.123,1163.206 678.715,1163.748C676.308,1164.291 673.798,1165.206 671.187,1166.495C668.576,1167.783 666.05,1169.394 663.609,1171.327C661.167,1173.26 657.844,1176.362 653.64,1180.635L652.114,1180.228L653.436,1163.647L647.231,1163.647L623.326,1164.562L623.326,1169.954C626.377,1170.564 628.564,1171.174 629.887,1171.785C631.209,1172.395 632.26,1173.141 633.04,1174.023C633.82,1174.904 634.414,1176.023 634.821,1177.38C635.227,1178.736 635.499,1180.448 635.634,1182.517C635.77,1184.585 635.838,1188.061 635.838,1192.943L635.838,1280.224C635.838,1284.157 635.702,1287.311 635.431,1289.684C635.16,1292.058 634.617,1293.94 633.803,1295.33C632.99,1296.72 631.82,1297.771 630.294,1298.483C628.768,1299.196 626.784,1299.891 624.343,1300.569L624.343,1305.553L665.847,1305.553L665.847,1300.569C662.592,1299.891 660.235,1299.145 658.777,1298.331C657.319,1297.517 656.2,1296.483 655.42,1295.228C654.64,1293.974 654.098,1292.261 653.792,1290.091C653.487,1287.921 653.335,1284.632 653.335,1280.224L653.335,1258.76ZM653.335,1225.19L653.335,1198.335C653.335,1195.487 653.894,1192.825 655.013,1190.349C656.132,1187.874 658.048,1185.314 660.761,1182.669C663.473,1180.024 666.203,1178.109 668.949,1176.922C671.696,1175.735 674.968,1175.142 678.766,1175.142C694.296,1175.142 702.061,1188.434 702.061,1215.018C702.061,1228.31 699.993,1238.364 695.856,1245.179C691.719,1251.995 685.548,1255.403 677.342,1255.403C672.73,1255.403 669.017,1254.86 666.203,1253.775C663.388,1252.69 660.947,1251.046 658.879,1248.842C656.81,1246.637 655.369,1243.772 654.555,1240.246C653.741,1236.719 653.335,1231.701 653.335,1225.19ZM667.256,1225.19C667.256,1230.344 667.476,1234.324 668.12,1237.115C668.322,1237.988 668.518,1238.77 669.03,1239.315C669.646,1239.971 670.373,1240.462 671.211,1240.786C672.753,1241.38 674.814,1241.481 677.342,1241.481C680.249,1241.481 682.489,1240.371 683.955,1237.956C687.087,1232.795 688.139,1225.083 688.139,1215.018C688.139,1206.501 687.351,1199.659 685.361,1194.549C684.044,1191.166 682.06,1189.063 678.766,1189.063C677.113,1189.063 675.667,1189.185 674.471,1189.701C673.111,1190.289 671.823,1191.327 670.479,1192.637C669.227,1193.858 668.215,1194.941 667.699,1196.084C667.384,1196.78 667.256,1197.534 667.256,1198.335L667.256,1225.19Z" style="fill:white;"/>
            <g transform="matrix(92.098313,0,0,92.098313,807.443668,1209.206452)">
            </g>
            <text x="738.64px" y="1209.206px" style="font-family:'CambriaMath', 'Cambria Math', serif;font-size:92.098px;fill:rgb(147,145,139);">+</text>
            <path d="M790.156,1199.789L790.156,1211.77C790.156,1219.458 783.923,1225.691 776.235,1225.691L769.849,1225.691C762.16,1225.691 755.927,1219.458 755.927,1211.77L755.927,1199.789L745.34,1199.789C737.652,1199.789 731.419,1193.556 731.419,1185.867L731.419,1179.886C731.419,1172.197 737.652,1165.964 745.34,1165.964L755.927,1165.964L755.927,1153.983C755.927,1146.295 762.16,1140.062 769.849,1140.062L776.235,1140.062C783.923,1140.062 790.156,1146.295 790.156,1153.983L790.156,1165.964L800.743,1165.964C808.432,1165.964 814.665,1172.197 814.665,1179.886L814.665,1185.867C814.665,1193.556 808.432,1199.789 800.743,1199.789L790.156,1199.789ZM776.235,1185.867L800.743,1185.867L800.743,1179.886L776.235,1179.886L776.235,1153.983L769.849,1153.983L769.849,1179.886L745.34,1179.886L745.34,1185.867L769.849,1185.867L769.849,1211.77L776.235,1211.77L776.235,1185.867Z" style="fill:white;"/>
        </g>
    </g>
    <defs>
        <radialGradient id="_Radial1" cx="0" cy="0" r="1" gradientUnits="userSpaceOnUse" gradientTransform="matrix(64.542318,0,0,64.542318,481.050242,263.837031)"><stop offset="0" style="stop-color:rgb(231,111,81);stop-opacity:1"/><stop offset="1" style="stop-color:white;stop-opacity:0"/></radialGradient>
    </defs>
</svg>
