<?xml version="1.0" encoding="UTF-8" standalone="no"?>
<!DOCTYPE svg PUBLIC "-//W3C//DTD SVG 1.1//EN" "http://www.w3.org/Graphics/SVG/1.1/DTD/svg11.dtd">
<svg width="100%" height="100%" viewBox="0 0 175 286" version="1.1" xmlns="http://www.w3.org/2000/svg" xmlns:xlink="http://www.w3.org/1999/xlink" xml:space="preserve" xmlns:serif="http://www.serif.com/" style="fill-rule:evenodd;clip-rule:evenodd;stroke-linecap:round;stroke-linejoin:round;stroke-miterlimit:1.5;">
    <g transform="matrix(1,0,0,1,-991.688633,-236.865785)">
        <g transform="matrix(1,0,0,1,648.618631,-144.828945)">
            <g transform="matrix(0.519146,0,0,2.294416,164.619971,-715.815634)">
                <path d="M679.749,482.365L679.749,598.554C679.749,600.776 671.778,602.579 661.96,602.579L361.526,602.579C351.708,602.579 343.738,600.776 343.738,598.554L343.738,482.365C343.738,480.143 351.708,478.34 361.526,478.34L661.96,478.34C671.778,478.34 679.749,480.143 679.749,482.365Z" style="fill:rgb(231,111,81);fill-opacity:0;"/>
            </g>
            <g transform="matrix(1.320813,0,0,1.320813,164.135532,-214.462917)">
                <circle cx="246.802" cy="543.711" r="12.9" style="fill:rgb(255,50,0);"/>
            </g>
            <g transform="matrix(1.093531,0,0,1.093531,220.229117,-90.887296)">
                <circle cx="246.802" cy="543.711" r="12.9"/>
                <clipPath id="_clip1">
                    <circle cx="246.802" cy="543.711" r="12.9"/>
                </clipPath>
                <g clip-path="url(#_clip1)">
                    <g transform="matrix(0.724119,0,0,0.724119,-384.668429,164.801413)">
                        <g transform="matrix(50,0,0,50,888.764921,541.16547)">
                        </g>
                        <text x="855.415px" y="541.165px" style="font-family:'Arial-BoldMT', 'Arial', sans-serif;font-weight:700;font-size:50px;fill:rgb(255,51,0);">X</text>
                    </g>
                </g>
            </g>
            <g transform="matrix(1.320813,0,0,1.320813,164.135532,-214.462917)">
                <circle cx="246.802" cy="543.711" r="12.9" style="fill:rgb(94,193,89);"/>
            </g>
            <g transform="matrix(1.093531,0,0,1.093531,220.229117,-90.887296)">
                <circle cx="246.802" cy="543.711" r="12.9"/>
            </g>
            <g transform="matrix(-1.294153,0,0,1.635719,571.364885,-147.581076)">
                <path d="M50.709,399.679L50.709,396.617L63.148,396.617L61.143,392.024L74.375,398.148L61.143,404.272L63.148,399.679L50.709,399.679Z" style="fill:rgb(94,193,89);stroke:rgb(94,193,89);stroke-width:0.85px;"/>
            </g>
            <g transform="matrix(1.1549,0,0,1,290.29679,97.447314)">
                <path d="M74.071,360.588L74.071,453.214L54.034,453.214L54.034,366.033C54.034,363.028 56.146,360.588 58.748,360.588L74.071,360.588Z" style="fill:white;"/>
            </g>
            <g transform="matrix(0.963336,0,0,0.904145,305.693914,133.908587)">
                <path d="M67.578,361.791L67.578,457.634L56.336,457.634C55.065,457.634 54.034,456.535 54.034,455.18L54.034,364.245C54.034,362.891 55.065,361.791 56.336,361.791L67.578,361.791Z"/>
            </g>
            <g transform="matrix(4.371681,0,0,1,142.608386,97.447314)">
                <path d="M74.071,365.843L74.071,453.214L54.034,453.214L54.034,360.588L72.868,360.588C73.532,360.588 74.071,362.943 74.071,365.843Z" style="fill:white;"/>
            </g>
            <g transform="matrix(5.675589,0,0,1,46.027222,192.970267)">
                <path d="M74.071,360.588L74.071,447.656C74.071,450.724 73.632,453.214 73.091,453.214L55.013,453.214C54.472,453.214 54.034,450.724 54.034,447.656L54.034,360.588L74.071,360.588Z" style="fill:white;"/>
            </g>
        </g>
    </g>
</svg>
